<svg xmlns="http://www.w3.org/2000/svg" viewBox="0 0 324.31 42.46"><defs><style>.cls-1{fill:#e6007e;}.cls-2{fill:#1d1d1b;}</style></defs><g id="Layer_2" data-name="Layer 2"><g id="Layer_1-2" data-name="Layer 1"><path class="cls-1" d="M.6,31.69Q34,29.16,67.25,25.62c21.82-2.28,43.62-4.81,65.4-7.43Q150.83,16,169,13.75l-.54-.94c-2,3.55-6.71,5.56-10.07,7.49-3.13,1.8-7.23,3.77-9,7.11a.63.63,0,0,0,.54.94q33.93-3.3,67.86-6.67t67.7-6.8Q304.6,12.95,323.72,11c.79-.08.8-1.33,0-1.25q-33.8,3.48-67.6,6.88t-67.78,6.74q-19.22,1.89-38.43,3.76l.54.94c1.9-3.56,6.67-5.57,10-7.49,3.16-1.81,7.25-3.78,9.09-7.11.2-.37,0-1-.54-.94-21.53,2.65-43,5.29-64.6,7.77-22,2.53-43.95,4.9-66,7Q19.53,29,.6,30.44c-.8.06-.8,1.31,0,1.25Z"/><path class="cls-2" d="M19.9,42.46H30.46V32.05c-3.52.31-7,.64-10.56.94Z"/><path class="cls-2" d="M19.9,0V26c3.54-.3,7-.62,10.56-.94V0Z"/><path class="cls-2" d="M58.6,42.46H69.15V28.27q-5.27.56-10.55,1.08Z"/><path class="cls-2" d="M82.28,0V16.64l.32,3.22,10.23-1.14V0Z"/><path class="cls-2" d="M69.26,0H58.6V22.39L69.15,21.3V19.75l-.28-4.41,3.65,5.6c3.26-.35,6.52-.69,9.77-1.05Z"/><path class="cls-2" d="M82.66,27.44l-.37-.58c-3.25.36-6.51.7-9.77,1.05L82,42.46H92.83V25.69L82.6,26.83Z"/><path class="cls-2" d="M125.64,0h-11l6.12,15.29,10-1.2Z"/><path class="cls-2" d="M144.8,0l-4.54,13.36L151.35,12l4.73-12Z"/><path class="cls-2" d="M136.65,25.84a34.44,34.44,0,0,0-1.15,4.76h-.14a53,53,0,0,0-2.23-8l-.59-1.59-10,1.19,8.09,20.21h9.79L149.61,19l-11.09,1.34Z"/><path class="cls-2" d="M197.77,14.09H188.4V7.55h10.8V0H177.85V21.49l19.92-2Z"/><path class="cls-2" d="M188.4,28.42h9.37V26.49l-19.92,2v14h21.42V34.88H188.4Z"/><path class="cls-2" d="M253.81,10.87a9.13,9.13,0,0,0-4.32-7.95Q245.17,0,237.72,0H225.43V16.8L253.15,14A8.27,8.27,0,0,0,253.81,10.87ZM236,15.29V6.86q3.77.08,5.38,1.14A3.92,3.92,0,0,1,243,11.54Q243,15.19,236,15.29Z"/><path class="cls-2" d="M252.17,22.83a10.59,10.59,0,0,0,1-1.84l-27.72,2.78V42.46H236V26.3h.17l8.54,16.16h11.14l-8.43-16A10,10,0,0,0,252.17,22.83Z"/><path class="cls-2" d="M294,8.11h7.28V0H276.14V8.11h7.2V11L294,9.87Z"/><path class="cls-2" d="M283.34,17.92V42.46H294V16.84Z"/></g></g></svg>